<svg xmlns="http://www.w3.org/2000/svg" viewBox="0 0 760 160" role="img" aria-labelledby="title"><title>JH JOOP HESED Gadget Shop</title><defs><linearGradient id="g" x1="0" x2="1"><stop stop-color="#1479ff"/><stop offset="1" stop-color="#53b9ff"/></linearGradient></defs><path fill="url(#g)" d="M24 26c0-12 10-22 22-22h68c12 0 22 10 22 22v68c0 12-10 22-22 22H46c-12 0-22-10-22-22V26Z"/><path fill="#fff" d="M49 35h14v32c0 10 5 15 14 15s14-5 14-15V35h14v33c0 19-11 30-28 30S49 87 49 68V35Z"/><path fill="#081a33" d="M152 38h26v54c0 13-7 20-19 20h-9V98h6c5 0 8-2 8-8V52h-12V38Zm42 0h14v29h28V38h14v74h-14V81h-28v31h-14V38Z"/><text x="274" y="70" fill="#081a33" font-family="Arial,Helvetica,sans-serif" font-size="34" font-weight="800" letter-spacing="1">JOOP HESED</text><text x="277" y="103" fill="#3c5576" font-family="Arial,Helvetica,sans-serif" font-size="19" font-weight="700" letter-spacing="3">GADGET SHOP</text><path fill="#1479ff" d="M277 119h285v4H277z"/><text x="277" y="144" fill="#607898" font-family="Arial,Helvetica,sans-serif" font-size="14" letter-spacing="1.4">POWERING YOUR DIGITAL LIFESTYLE</text></svg>
